<?xml version="1.0" encoding="UTF-8" standalone="no"?>
<!-- Created with Inkscape (http://www.inkscape.org/) -->

<svg
   xmlns:dc="http://purl.org/dc/elements/1.1/"
   xmlns:cc="http://creativecommons.org/ns#"
   xmlns:rdf="http://www.w3.org/1999/02/22-rdf-syntax-ns#"
   xmlns:svg="http://www.w3.org/2000/svg"
   xmlns="http://www.w3.org/2000/svg"
   xmlns:sodipodi="http://sodipodi.sourceforge.net/DTD/sodipodi-0.dtd"
   xmlns:inkscape="http://www.inkscape.org/namespaces/inkscape"
   version="1.1"
   id="svg2"
   xml:space="preserve"
   width="297mm"
   height="210mm"
   viewBox="0 0 1122.5197 793.7008"
   sodipodi:docname="elefant-php.svg"
   inkscape:version="0.92.3 (2405546, 2018-03-11)"
   inkscape:export-filename="/home/allythy/Documentos/php-rn/php-rn.png"
   inkscape:export-xdpi="90"
   inkscape:export-ydpi="90"><metadata
     id="metadata8"><rdf:RDF><cc:Work
         rdf:about=""><dc:format>image/svg+xml</dc:format><dc:type
           rdf:resource="http://purl.org/dc/dcmitype/StillImage" /><dc:title></dc:title></cc:Work></rdf:RDF></metadata><defs
     id="defs6"><clipPath
       clipPathUnits="userSpaceOnUse"
       id="clipPath20"><path
         d="M 0,201.63 H 196 V 0 H 0 Z"
         id="path18"
         inkscape:connector-curvature="0" /></clipPath></defs><sodipodi:namedview
     pagecolor="#ffffff"
     bordercolor="#666666"
     borderopacity="1"
     objecttolerance="10"
     gridtolerance="10"
     guidetolerance="10"
     inkscape:pageopacity="0"
     inkscape:pageshadow="2"
     inkscape:window-width="1366"
     inkscape:window-height="739"
     id="namedview4"
     showgrid="false"
     units="mm"
     showguides="false"
     inkscape:guide-bbox="true"
     inkscape:zoom="0.31036528"
     inkscape:cx="767.77539"
     inkscape:cy="308.0398"
     inkscape:window-x="0"
     inkscape:window-y="0"
     inkscape:window-maximized="1"
     inkscape:current-layer="g10"><sodipodi:guide
       position="231.98472,655.67903"
       orientation="0,1"
       id="guide869"
       inkscape:locked="false" /><sodipodi:guide
       position="318.96272,371.36372"
       orientation="1,0"
       id="guide871"
       inkscape:locked="false" /><sodipodi:guide
       position="770.06714,373.64203"
       orientation="1,0"
       id="guide873"
       inkscape:locked="false" /><sodipodi:guide
       position="394.14679,328.07593"
       orientation="0,1"
       id="guide875"
       inkscape:locked="false" /></sodipodi:namedview><g
     id="g10"
     inkscape:groupmode="layer"
     inkscape:label="logomarca2"
     transform="matrix(1.3333333,0,0,-1.3333333,0,793.7008)"><path
       d="M 846.83382,-2.1472056 H -4.9440376 V 597.42283 H 846.83382 Z"
       style="fill:#1c2422;fill-opacity:1;fill-rule:nonzero;stroke:none;stroke-width:5.21632051"
       id="path12"
       inkscape:connector-curvature="0" /><g
       id="g1023"
       transform="matrix(0.9350387,0,0,0.9350387,38.524501,32.354166)"><g
         transform="matrix(2.6675687,0,0,2.6675687,147.56692,36.344841)"
         id="g14"><g
           clip-path="url(#clipPath20)"
           id="g16"><g
             style="fill:#dbe3e2;fill-opacity:1"
             transform="translate(33.0292,32.2393)"
             id="g26"><path
               inkscape:connector-curvature="0"
               id="path28"
               style="fill:#dbe3e2;fill-opacity:1;fill-rule:nonzero;stroke:none"
               d="m 0,0 h -7.422 l 3.321,17.155 h 8.18 c 3.053,0 5.348,-2.783 4.768,-5.78 L 7.908,6.524 C 7.175,2.736 3.858,0 0,0 m -10.729,23.673 -7.97,-41.171 h 7.891 l 2.124,10.979 h 8.668 c 7.916,0 14.72,5.613 16.224,13.384 l 0.841,4.342 c 1.252,6.464 -3.7,12.466 -10.284,12.466 z" /></g><g
             style="fill:#dbe3e2;fill-opacity:1"
             transform="translate(101.5858,32.2393)"
             id="g30"><path
               inkscape:connector-curvature="0"
               id="path32"
               style="fill:#dbe3e2;fill-opacity:1;fill-rule:nonzero;stroke:none"
               d="m 0,0 h -7.422 l 3.321,17.155 h 8.18 c 3.053,0 5.348,-2.783 4.768,-5.78 L 7.908,6.524 C 7.175,2.736 3.858,0 0,0 m -10.729,23.673 -7.97,-41.171 h 7.891 l 2.124,10.979 h 8.668 c 7.916,0 14.72,5.613 16.224,13.384 l 0.841,4.342 c 1.252,6.464 -3.7,12.466 -10.284,12.466 z" /></g><g
             transform="translate(82.7079,46.5364)"
             id="g34"><path
               inkscape:connector-curvature="0"
               id="path36"
               style="fill:#dbe3e2;fill-opacity:1;fill-rule:nonzero;stroke:none"
               d="m 0,0 -4.106,-20.816 h -8.235 l 3.932,19.932 c 0.382,1.938 -1.101,3.742 -3.075,3.742 h -7.852 l -4.67,-23.674 h -7.805 l 8.303,41.514 h 7.692 L -18.05,9.376 H -7.707 C -2.758,9.376 0.958,4.855 0,0" /></g><g
             transform="translate(181.519,46.536)"
             id="g38"
             style="fill:#2c89a0;fill-opacity:1"><path
               inkscape:connector-curvature="0"
               id="path40"
               style="fill:#2c89a0;fill-opacity:1;fill-rule:nonzero;stroke:none"
               d="m 0,0 -4.107,-20.815 h -8.234 l 3.932,19.933 c 0.381,1.935 -1.102,3.74 -3.074,3.74 h -7.854 l -4.669,-23.673 h -7.806 l 6.039,30.192 H -7.709 C -2.758,9.377 0.957,4.855 0,0" /></g><g
             transform="translate(151.67,46.536)"
             id="g42"
             style="fill:#2c89a0;fill-opacity:1"><path
               inkscape:connector-curvature="0"
               id="path44"
               style="fill:#2c89a0;fill-opacity:1;fill-rule:nonzero;stroke:none"
               d="m 0,0 -0.045,-0.23 h -8.306 c -0.024,1.671 -1.383,3.088 -3.132,3.088 h -7.854 l -4.669,-23.673 h -7.806 l 6.039,30.192 H -7.709 C -2.758,9.377 0.957,4.855 0,0" /></g></g></g><g
         transform="matrix(2.4967747,0,0,-2.4967747,-662.25361,950.584)"
         id="g871"><g
           id="g822"
           transform="translate(402.77324,-55.781264)"><g
             transform="matrix(0.77478997,0,0,0.77478997,-31.851511,171.86224)"
             id="g893"><path
               id="path49"
               style="fill:#2c89a0;fill-opacity:1;stroke-width:1.7284683"
               d="m 65.855854,87.360511 c -2.070272,0.01383 -4.264044,0.459185 -6.431111,1.377365 -2.921992,1.237704 -10.116551,2.087038 -15.984959,1.887141 -12.795193,-0.436386 -26.07185,4.576154 -32.564063,12.291703 -4.7878216,5.68993 -8.7248917,18.09003 -10.4518387,32.9253 -0.63628367,5.46631 -1.5317684,9.94206 -1.9884124,9.94206 -0.4567131,0 -3.0896022,-1.60905 -5.8504497,-3.57509 l -5.0199902,-3.5751 v 3.6595 c 0,4.33038 3.9266823,12.39137 7.4675183,15.33002 2.1835911,1.8122 2.0867623,3.44913 -0.7494465,12.56178 -1.6530896,5.31134 -2.6159846,10.23988 -2.904656,14.72339 -0.3584843,5.56788 0.3228433,10.44944 2.013406,14.52553 1.5338081,-0.46704 1.7533581,-0.6664 3.8301989,-0.6664 v 0 0 c -2.2998651,-2.97345 -0.9664211,-5.46624 -0.879652,-10.89617 0.010371,-0.67991 0.051163,-1.4262 0.1171902,-2.21977 0.3819914,-4.58796 1.6273873,-10.75595 3.04943252,-14.80834 2.99966998,-8.54785 3.12462088,-8.65104 11.53213158,-9.57072 10.785382,-1.17977 15.942007,-4.04659 17.345454,-9.63823 1.800632,-7.17425 -2.742681,-10.38905 -11.130401,-7.87603 -12.3993734,3.71495 -12.9626985,3.3299 -11.6097573,-7.9165 2.9047943,-24.14658 9.1654263,-34.22877 23.7900643,-38.323387 9.187517,-2.572358 17.953356,-1.938028 17.29818,1.252465 -0.284108,1.383332 2.521317,0.503727 7.275088,-2.282114 11.143313,-6.530446 16.685335,-5.452712 19.90777,3.868796 2.115575,6.11952 2.17659,9.29321 0.388231,19.7221 -2.078397,12.12027 -5.174913,20.29888 -12.349092,32.6147 -1.938218,3.32729 -4.648784,8.95917 -6.022623,12.51451 -1.663512,4.30497 -3.308115,6.15167 -4.928847,5.52975 -2.289875,-0.87867 -7.332888,-10.69381 -11.4916,-22.36543 -1.613352,-4.52742 -1.756348,-3.94694 -1.117437,4.56086 1.769087,23.54798 17.329829,31.70749 23.563877,12.35585 1.159318,-3.59865 4.708589,-10.82382 7.886136,-16.05247 5.743509,-9.45094 11.056129,-28.90422 11.056129,-40.4806 v -5.68504 l 12.531393,-1.38749 c 27.969362,-3.09721 37.161272,0.23737 45.385792,16.4677 3.17115,6.2579 12.88152,36.90928 12.94662,40.86208 0.002,0.14864 -1.66998,-0.16438 -3.71349,-0.69882 -6.28665,-1.64405 -8.3824,3.63661 -8.3824,21.11634 0,19.60348 -2.05173,23.39736 -12.62929,23.36469 -9.31799,-0.0302 -15.33017,-1.65715 -14.56708,-3.94644 0.80354,-2.41059 8.49569,-2.95103 11.20804,-0.78659 2.77545,2.21495 2.84959,-0.77575 0.0878,-3.53795 -2.87979,-2.87959 -12.62544,-2.59958 -15.14436,0.43549 -5.735,6.91026 2.42205,12.98171 17.49398,13.0209 8.81934,0.023 10.22673,-0.50026 14.25987,-5.29344 4.11684,-4.89272 4.47647,-6.61325 4.47647,-21.50456 0,-8.90218 0.62434,-16.56994 1.38749,-17.04162 0.7631,-0.47167 4.74852,3.04118 8.85503,7.80849 9.17034,10.6461 12.44603,9.11413 6.38386,-2.98767 -2.33855,-4.66834 -5.90065,-15.0985 -7.91316,-23.17904 -5.49139,-22.04903 -10.3525,-32.84309 -18.43585,-40.9262 -9.29937,-9.299244 -18.41163,-12.003588 -31.55131,-9.364787 -5.185918,1.041523 -13.061942,1.890512 -17.504105,1.890512 -6.913717,0 -8.356383,-0.612362 -10.023093,-4.270544 -1.694884,-3.719819 -5.644036,-5.782296 -10.198636,-5.752549 z m 117.049696,5.198904 c -0.0327,8.99e-4 -0.0653,0.0069 -0.0978,0.0069 -0.0138,0.124795 -0.0273,0.249884 -0.0404,0.374714 0.0465,-0.125832 0.0923,-0.255554 0.13845,-0.381473 z M 21.736032,147.78262 c 1.643117,-0.0207 2.126828,0.56651 2.126828,1.88376 0,1.43395 -1.009511,3.44438 -2.244986,4.46971 -3.94006,3.26999 -15.5211421,3.94269 -21.52144998,1.2491 -7.84836862,-3.52328 -7.00567132,-5.2853 2.59270218,-5.42511 4.5156574,-0.0657 11.1270308,-0.74774 14.6919788,-1.51241 1.964905,-0.42123 3.369061,-0.65255 4.354927,-0.66505 z m -0.661675,63.64949 c -0.0662,0.0104 -0.132919,0.0194 -0.199188,0.0304 -0.07363,0.0237 -0.201436,0.0681 -0.30383,0.10129 -0.02558,0.0138 -0.04183,0.0239 -0.06758,0.0372 0.189233,-0.06 0.381698,-0.10854 0.570533,-0.1687 z m -0.570532,0.1687 c -0.148476,0.0472 -0.298213,0.0904 -0.449005,0.12825 -1.22901,0.40085 -2.555868,0.8377 0.425376,-0.11822 0.0086,-0.005 0.01556,-0.005 0.02368,-0.0104 z m -0.449005,0.12825 c 0.215368,-0.0702 0.343119,-0.10906 0.516519,-0.16541 0.05047,-0.0261 0.08573,-0.0455 0.134993,-0.0709 -0.339022,0.0569 -0.675088,0.12601 -1.012779,0.18906 -0.160056,0.0572 -0.35138,0.12756 -0.563774,0.20593 0.248934,-0.0275 0.526612,-0.056 0.675174,-0.0844 0.08539,-0.0156 0.165587,-0.0532 0.249816,-0.0743 z"
               inkscape:connector-curvature="0"
               sodipodi:nodetypes="cccccsccsccscccccscccscccccscsccccsscccccscccccccsccccccscccccccccscccccccccccccccccccccccc" /><path
               style="color:#000000;font-style:normal;font-variant:normal;font-weight:normal;font-stretch:normal;font-size:medium;line-height:normal;font-family:sans-serif;font-variant-ligatures:normal;font-variant-position:normal;font-variant-caps:normal;font-variant-numeric:normal;font-variant-alternates:normal;font-feature-settings:normal;text-indent:0;text-align:start;text-decoration:none;text-decoration-line:none;text-decoration-style:solid;text-decoration-color:#000000;letter-spacing:normal;word-spacing:normal;text-transform:none;writing-mode:lr-tb;direction:ltr;text-orientation:mixed;dominant-baseline:auto;baseline-shift:baseline;text-anchor:start;white-space:normal;shape-padding:0;clip-rule:nonzero;display:inline;overflow:visible;visibility:visible;opacity:1;isolation:auto;mix-blend-mode:normal;color-interpolation:sRGB;color-interpolation-filters:linearRGB;solid-color:#000000;solid-opacity:1;vector-effect:none;fill:#2c89a0;fill-opacity:1;fill-rule:evenodd;stroke:none;stroke-width:4.57295513;stroke-linecap:butt;stroke-linejoin:miter;stroke-miterlimit:4;stroke-dasharray:none;stroke-dashoffset:0;stroke-opacity:1;color-rendering:auto;image-rendering:auto;shape-rendering:auto;text-rendering:auto;enable-background:accumulate"
               d="m 3.1337314,211.89779 c 10.0525176,6.29062 24.2267516,3.97717 30.5315826,-6.62425 5.027774,-8.45402 2.971068,-20.3096 -6.108227,-25.29589 -6.853879,-3.76406 -16.448037,-1.94788 -20.0675702,5.65544 -1.054236,2.21475 -1.3563123,4.72249 -0.9410553,7.11095 0.5701168,3.27913 2.6832401,6.47458 6.2915565,7.69745 1.863335,0.63173 3.908171,0.54811 5.791987,-0.25543 1.883816,-0.80334 3.693125,-2.77859 3.666994,-5.33298 l -4.567494,0.0392 c 0.0065,0.64152 -0.175536,0.78158 -0.900401,1.09071 -0.72486,0.30901 -1.917323,0.33579 -2.519699,0.13197 -1.879876,-0.63695 -2.909203,-2.17183 -3.255075,-4.16139 -0.251904,-1.44904 -0.04965,-3.07074 0.564891,-4.36208 2.365838,-4.96976 8.999405,-6.20765 13.735465,-3.60662 6.617869,3.63445 8.161568,12.5881 4.374626,18.95574 -4.90047,8.24001 -16.184877,10.0754 -24.1686424,5.07938 -7.3048711,-4.57119 -9.8692993,-14.13853 -9.1535926,-22.22776 0.0098,-0.0457 -0.010452,0.0457 0,0 0.013066,-0.0523 -0.081725,-0.21754 -0.081725,-0.21754 v 0 c -0.4403102,-0.10583 -6.533e-4,0.007 0,0 l 0.2528844,0.0327 -4.2187143,-1.15859 c -0.0098,0.0327 -0.0098,0.0653 -0.011759,0.0725 l -0.016332,0.0588 c -0.00587,0.0261 -0.011106,0.0392 -0.016332,0.0588 l -0.019598,0.11302 c -0.013719,0.0588 -0.029397,0.13066 -0.040503,0.18096 l -0.00915,-0.004 c -2.2657551,10.21762 1.8191934,21.29384 10.8859325,26.9675 z"
               id="path3815"
               inkscape:connector-curvature="0"
               sodipodi:nodetypes="cccccccccccsccsscsccccccccccccc" /></g></g></g></g></g></svg>